<svg xmlns="http://www.w3.org/2000/svg" viewBox="0 0 300 300"><defs><style>.cls-1{fill:#f33;}</style></defs><title>Pochosk Ministries</title><g id="Layer_1" data-name="Layer 1"><path class="cls-1" d="M237.63,16h-21l-1-.49-.47.49H164.39L160.58.75Q155.35.38,150,.37T139.42.75L135.61,16H84.8l-.47-.49-1,.49h-41V71.07L25.7,66.31A147.43,147.43,0,0,0,15.11,84.6L42.39,111v18.15l-42,10.5c-.25,3.5-.38,7-.38,10.58s.13,7.07.38,10.57l42,10.5v13.87c0,1.4,0,2.78.12,4.17l-27.4,26.47A147.43,147.43,0,0,0,25.7,234.06l27-7.7Z"/><path class="cls-1" d="M258.07,171.14l41.55-10.38q.38-5.25.38-10.57c0-3.56-.13-7.08-.38-10.58l-41.55-10.38V110.52L284.89,84.6A147.43,147.43,0,0,0,274.3,66.31l-16.23,4.63V42.24l-186.29,212L66,274.33a148.88,148.88,0,0,0,18.31,10.58l9.68-10c15.6,12.07,32,20.38,45.13,23.59l.28,1.11q5.24.38,10.58.38h0q5.34,0,10.58-.38l.35-1.38c12.41-3.47,28.64-12,44.27-24.14l10.47,10.81A148.88,148.88,0,0,0,234,274.33L227.87,253a136.06,136.06,0,0,0,18.9-26.78l27.53,7.85a147.43,147.43,0,0,0,10.59-18.29l-27.06-26.14q.24-3,.24-6.1Z"/></g></svg>