<svg xmlns="http://www.w3.org/2000/svg" viewBox="0 0 300 300"><defs><style>.cls-1{fill:#f33;}</style></defs><title>Pochosk Ministries</title><g id="Layer_1" data-name="Layer 1"><circle class="cls-1" cx="150" cy="82.5" r="15"/><path class="cls-1" d="M299.62,160.58q.38-5.24.38-10.58t-.38-10.58l-42.79-10.71a106.15,106.15,0,0,0-3.65-13.7l31.71-30.68A147.68,147.68,0,0,0,274.3,66L231.85,78.15a107.25,107.25,0,0,0-10-10L234,25.7a147.68,147.68,0,0,0-18.31-10.59L185,46.82a106.15,106.15,0,0,0-13.7-3.65L160.58.38Q155.35,0,150,0T139.42.38L128.71,43.17A106.15,106.15,0,0,0,115,46.82L84.33,15.11A147.68,147.68,0,0,0,66,25.7L78.15,68.15a107.25,107.25,0,0,0-10,10L25.7,66A147.68,147.68,0,0,0,15.11,84.33L46.82,115a106.15,106.15,0,0,0-3.65,13.7L.38,139.42Q0,144.66,0,150t.38,10.58l42.79,10.71A106.15,106.15,0,0,0,46.82,185L15.11,215.67A147.68,147.68,0,0,0,25.7,234l42.45-12.13a107.25,107.25,0,0,0,10,10L66,274.3a147.68,147.68,0,0,0,18.31,10.59L115,253.18a106.15,106.15,0,0,0,13.7,3.65l10.71,42.79q5.24.38,10.58.38t10.58-.38l10.71-42.79a106.15,106.15,0,0,0,13.7-3.65l30.68,31.71A147.68,147.68,0,0,0,234,274.3l-12.13-42.45a107.25,107.25,0,0,0,10-10L274.3,234a147.68,147.68,0,0,0,10.59-18.31L253.18,185a106.15,106.15,0,0,0,3.65-13.7ZM170,237.5H130V62.5h40Z"/></g></svg>