<svg viewBox="0 0 300 300" xmlns="http://www.w3.org/2000/svg"><path d="m299.62 160.58q.38-5.24.38-10.58t-.38-10.58l-42.79-10.71a106.15 106.15 0 0 0 -3.65-13.7l31.71-30.68a147.68 147.68 0 0 0 -10.59-18.33l-42.45 12.15a107.25 107.25 0 0 0 -10-10l12.15-42.45a147.68 147.68 0 0 0 -18.31-10.59l-30.69 31.71a106.15 106.15 0 0 0 -13.7-3.65l-10.72-42.79q-5.23-.38-10.58-.38t-10.58.38l-10.71 42.79a106.15 106.15 0 0 0 -13.71 3.65l-30.67-31.71a147.68 147.68 0 0 0 -18.33 10.59l12.15 42.45a107.25 107.25 0 0 0 -10 10l-42.45-12.15a147.68 147.68 0 0 0 -10.59 18.33l31.71 30.67a106.15 106.15 0 0 0 -3.65 13.7l-42.79 10.72q-.38 5.24-.38 10.58t.38 10.58l42.79 10.71a106.15 106.15 0 0 0 3.65 13.71l-31.71 30.67a147.68 147.68 0 0 0 10.59 18.33l42.45-12.13a107.25 107.25 0 0 0 10 10l-12.15 42.43a147.68 147.68 0 0 0 18.31 10.59l30.69-31.71a106.15 106.15 0 0 0 13.7 3.65l10.71 42.79q5.24.38 10.58.38t10.58-.38l10.71-42.79a106.15 106.15 0 0 0 13.7-3.65l30.68 31.71a147.68 147.68 0 0 0 18.34-10.59l-12.13-42.45a107.25 107.25 0 0 0 10-10l42.43 12.15a147.68 147.68 0 0 0 10.59-18.31l-31.71-30.69a106.15 106.15 0 0 0 3.65-13.7zm-87-28.31h-54.35v82.73h-23.63v-82.73h-47.28v-35.45h47.28v-11.82h23.63v11.82h34.28c0 21.27 20.09 23.63 20.09 23.63z" fill="#f33"/></svg>